PathFileType	4	(X/Y/Z)	..\data\2014025\dynamic\2014025_C5_02.trc
DataRate	CameraRate	NumFrames	NumMarkers	Units	OrigDataRate	OrigDataStartFrame	OrigNumFrames
100.000000	100.000000	4	52	mm	100.000000	93	125
Frame#	Time	L_IAS			L_IPS			R_IPS			R_IAS			L_FTC			L_FLE			L_FME			L_FAX			L_TTC			L_FAL			L_TAM			L_FCC			L_FM1			L_FM2			L_FM5			R_FTC			R_FLE			R_FME			R_FAX			R_TTC			R_FAL			R_TAM			R_FCC			R_FM1			R_FM2			R_FM5			CV7			TV10			SXS			SJN			L_SIA			L_SRS			L_SAA			L_SAE			L_HLE			L_HME			L_UOA			L_RSP			L_UHE			L_HM2			L_HM5			R_SIA			R_SRS			R_SAA			R_SAE			R_HLE			R_HME			R_UOA			R_RSP			R_UHE			R_HM2			R_HM5			
		X1	Y1	Z1	X2	Y2	Z2	X3	Y3	Z3	X4	Y4	Z4	X5	Y5	Z5	X6	Y6	Z6	X7	Y7	Z7	X8	Y8	Z8	X9	Y9	Z9	X10	Y10	Z10	X11	Y11	Z11	X12	Y12	Z12	X13	Y13	Z13	X14	Y14	Z14	X15	Y15	Z15	X16	Y16	Z16	X17	Y17	Z17	X18	Y18	Z18	X19	Y19	Z19	X20	Y20	Z20	X21	Y21	Z21	X22	Y22	Z22	X23	Y23	Z23	X24	Y24	Z24	X25	Y25	Z25	X26	Y26	Z26	X27	Y27	Z27	X28	Y28	Z28	X29	Y29	Z29	X30	Y30	Z30	X31	Y31	Z31	X32	Y32	Z32	X33	Y33	Z33	X34	Y34	Z34	X35	Y35	Z35	X36	Y36	Z36	X37	Y37	Z37	X38	Y38	Z38	X39	Y39	Z39	X40	Y40	Z40	X41	Y41	Z41	X42	Y42	Z42	X43	Y43	Z43	X44	Y44	Z44	X45	Y45	Z45	X46	Y46	Z46	X47	Y47	Z47	X48	Y48	Z48	X49	Y49	Z49	X50	Y50	Z50	X51	Y51	Z51	X52	Y52	Z52	

94	0.93	1504.67822265625	893.181823730469	-411.3771057128907	1267.6552734375	934.537780761719	-334.5293579101563	1266.554443359375	927.2823486328127	-219.7249298095704	1489.81787109375	880.6484985351565	-145.5338134765625	1418.94140625	842.0327758789065	-495.6804504394532	1543.189086914063	475.051727294922	-427.7916259765626	1531.349487304688	456.3318176269532	-272.2235107421876	1528.420654296875	416.2929992675782	-433.4778747558595	1583.814331054688	390.4188842773439	-372.5278930664063	1502.98388671875	66.47908782958986	-391.9175720214845	1508.566528320313	73.36831665039064	-301.2773132324219	1455.707397460938	18.83898544311524	-348.0237731933594	1643.019287109375	17.00909042358399	-290.3914184570313	1648.038330078125	36.10031127929688	-350.2506103515626	1610.764282226563	16.64906311035157	-401.9055175781251	1397.008666992188	803.7637329101565	-62.22943115234376	1376.448364257813	437.4076538085939	-100.1146621704102	1424.889526367188	415.0687866210939	-259.3893127441407	1316.558837890625	411.1633300781251	-102.903793334961	1378.224487304688	337.6416931152344	-144.675537109375	1058.33935546875	220.8027343750001	-175.3873291015625	1096.275756835938	188.0308837890625	-248.9651489257813	1016.583129882813	217.605209350586	-248.4655761718751	1082.0224609375	49.50451278686525	-211.9401092529297	1088.216918945313	76.90346527099611	-160.007568359375	1041.7373046875	105.861801147461	-129.5647735595703	1349.976806640625	1397.172241210938	-298.9342956542969	1274.211547851563	1171.884155273438	-274.9842224121094	1533.239013671875	1178.398071289063	-291.0527954101563	1467.57763671875	1319.17041015625	-295.3785095214844	1266.616821289063	1207.573974609375	-376.6061096191407	1306.884399414063	1340.870971679688	-376.3850402832032	1347.074340820313	1346.870971679688	-454.7647094726564	1394.90380859375	1351.285278320313	-479.3955383300782	1287.1767578125	1056.950073242188	-542.2188110351564	1283.010986328125	1038.094482421875	-449.110809326172	1267.293701171875	1043.154418945313	-494.1834716796876	1308.770385742188	809.0772094726565	-546.9440917968751	1233.90771484375	830.8862915039065	-572.2894287109376	1287.567993164063	727.8637695312501	-573.2065429687501	1208.10009765625	779.8183593750002	-590.4396972656251	1274.389526367188	1214.505859375	-169.2345428466797	1311.19921875	1347.439575195313	-200.5175476074219	1358.731811523438	1364.272094726563	-138.8010406494141	1410.90576171875	1370.36474609375	-126.0702056884766	1439.246948242188	1066.84326171875	-4.745276451110841	1420.061767578125	1031.59521484375	-83.52617645263673	1428.763549804688	1023.431030273438	-30.28629112243653	1649.80224609375	914.4370117187502	-28.93869781494141	1616.5888671875	894.7248535156252	25.66610908508301	1701.35205078125	857.5056152343752	-6.93593215942383	1615.76611328125	841.1679687500002	39.30415725708009	
95	0.9400000000000001	1522.032836914063	895.840270996094	-413.3143615722657	1285.33740234375	937.687194824219	-333.9757995605469	1283.945068359375	928.4022216796877	-218.7833862304688	1507.35986328125	883.0278320312502	-146.3756713867188	1435.816650390625	844.9829711914065	-496.7641601562501	1552.25537109375	474.2854919433595	-428.1141967773439	1539.224853515625	456.2014770507814	-272.7783508300782	1536.30224609375	415.9372558593751	-433.7105102539064	1590.736450195313	388.9214172363282	-372.2582397460938	1503.250854492188	66.59447479248048	-391.8471984863282	1508.380004882813	73.60403442382814	-300.9685058593751	1455.464477539063	18.86661338806153	-348.0508728027344	1642.5263671875	16.34955024719239	-290.3624877929688	1648.301635742188	35.94538116455079	-350.3192138671876	1610.543334960938	17.10985755920411	-402.4206848144532	1417.039306640625	804.3066406250002	-62.94389724731447	1410.898315429688	438.3545227050782	-99.89450836181643	1461.738159179688	417.7010498046876	-259.0308532714844	1352.596435546875	412.7232666015626	-103.0251007080078	1414.979125976563	339.4001159667969	-144.5837707519532	1094.290405273438	222.4285888671876	-176.6532287597657	1132.65283203125	189.374496459961	-250.1385498046876	1051.810180664063	217.0963745117188	-249.8575134277344	1122.182861328125	51.86752319335939	-209.4027862548829	1127.374877929688	80.47186279296876	-158.1203308105469	1080.465942382813	109.5420227050782	-128.7114715576172	1369.235961914063	1400.305786132813	-298.9190673828126	1292.77294921875	1175.097778320313	-276.5609130859376	1551.954833984375	1181.261840820313	-290.6878967285157	1486.42822265625	1322.145874023438	-294.8854370117188	1286.062133789063	1211.066284179688	-378.1978759765626	1326.488647460938	1344.223266601563	-377.1004028320313	1367.365844726563	1350.27734375	-455.3833618164064	1415.427734375	1354.749633789063	-479.3762817382814	1313.583129882813	1058.438354492188	-543.7966918945314	1307.6005859375	1039.78955078125	-450.6106262207032	1292.3837890625	1044.255493164063	-495.9832458496095	1340.706176757813	811.0270996093752	-546.7883911132814	1265.869750976563	830.9649047851565	-574.1188964843751	1321.966674804688	729.3345947265626	-572.7897338867189	1241.7509765625	779.0590820312502	-592.5344848632814	1292.009033203125	1217.387329101563	-170.7252044677735	1329.670654296875	1350.363037109375	-201.1744689941407	1376.94970703125	1366.681030273438	-138.9136352539063	1429.134765625	1372.389526367188	-125.5873489379883	1452.117553710938	1067.389038085938	-6.44400215148926	1432.255615234375	1033.576049804688	-85.72883605957033	1440.346435546875	1025.015991210938	-32.38414382934571	1656.97509765625	907.5595703125002	-27.51067352294923	1622.095092773438	888.9595947265627	26.56591224670411	1705.74609375	848.0548095703127	-5.015151500701905	1618.729736328125	835.299011230469	40.01523590087891	
96	0.9500000000000001	1539.403442382813	898.2180175781252	-414.891571044922	1303.1328125	941.129089355469	-333.9944458007813	1301.296020507813	930.425231933594	-218.6473388671876	1524.517578125	885.785339355469	-146.4632110595703	1452.531005859375	847.3057250976565	-497.743865966797	1560.195678710938	473.2558593750001	-428.2301635742189	1545.299438476563	455.6339416503907	-273.0826416015626	1543.02099609375	415.407440185547	-433.7594604492189	1596.459350585938	387.3423156738282	-371.6246337890626	1503.698120117188	66.7921600341797	-391.859588623047	1508.402465820313	73.92269897460939	-300.7744140625001	1455.56787109375	18.95825004577637	-348.0756835937501	1642.27880859375	16.34123039245606	-290.4151000976563	1648.61376953125	36.28796768188477	-350.4333801269532	1610.543579101563	17.85803413391114	-402.8636779785157	1436.346069335938	805.7211914062502	-63.700984954834	1445.188232421875	440.4791870117189	-100.0328063964844	1498.284545898438	421.8799743652345	-258.9281311035157	1388.504150390625	414.7773742675782	-103.6086654663086	1452.101806640625	342.2726135253907	-144.9595947265625	1132.209716796875	221.5663452148438	-177.8363494873047	1171.129638671875	188.8907470703125	-251.4249114990235	1088.857788085938	213.4447479248047	-251.0676727294922	1166.943725585938	52.90780639648439	-207.2742919921876	1170.7958984375	82.70230865478517	-156.592269897461	1123.107788085938	110.8202438354492	-127.9918594360352	1388.344116210938	1403.482788085938	-298.6246643066407	1311.272094726563	1178.359130859375	-278.0771484375001	1570.584350585938	1184.243530273438	-290.1178894042969	1505.129272460938	1325.2265625	-294.1649475097657	1305.418579101563	1214.66943359375	-379.6667175292969	1345.949096679688	1347.690673828125	-377.5659179687501	1387.432373046875	1353.893188476563	-455.7749938964845	1435.760009765625	1358.406494140625	-479.0713500976564	1340.315063476563	1060.111328125	-545.3436889648439	1332.419799804688	1041.584350585938	-452.1727600097657	1317.802734375	1045.421997070313	-497.8631896972657	1373.652099609375	813.3857421875002	-546.6375732421876	1298.934326171875	831.2403564453127	-576.0467529296876	1357.748413085938	731.3306884765626	-572.4996948242189	1276.7333984375	778.4725341796877	-594.8097534179689	1309.52978515625	1220.235107421875	-172.1818084716797	1347.997680664063	1353.287109375	-201.6692047119141	1394.948486328125	1369.0771484375	-138.8672027587891	1447.06787109375	1374.414184570313	-124.8996276855469	1464.61376953125	1068.01123046875	-8.097269058227541	1443.875732421875	1035.7353515625	-87.8088836669922	1451.56787109375	1026.69384765625	-34.51258850097657	1663.141723632813	900.6690673828127	-26.10508155822755	1626.583740234375	883.314880371094	27.42454719543458	1708.967163085938	838.6567993164065	-3.18260145187378	1620.665161132813	829.663269042969	40.68723297119141	
97	0.96	1556.881103515625	900.2813110351565	-416.0027770996095	1321.107421875	944.7601318359377	-334.6571960449219	1318.646484375	933.2340087890627	-219.3388977050782	1541.37841796875	888.8865966796877	-145.8916473388672	1469.1689453125	848.9959716796877	-498.6026916503907	1567.201538085938	472.075897216797	-428.168182373047	1549.893798828125	454.793426513672	-273.1698913574219	1548.761352539063	414.7864379882814	-433.6532287597657	1601.190307617188	385.7478942871095	-370.7248229980469	1504.296875	67.06520843505861	-391.9219970703126	1508.639526367188	74.29934692382814	-300.6705322265626	1455.935424804688	19.16068077087403	-348.0660095214844	1642.249389648438	16.75566291809082	-290.5063171386719	1648.976318359375	36.90922164916993	-350.5587158203126	1610.717651367188	18.72480201721192	-403.2042236328126	1454.908447265625	807.9539794921877	-64.51757049560548	1479.171997070313	443.6716918945314	-100.5191345214844	1534.297485351563	427.4491577148439	-259.0621643066407	1424.110229492188	417.1887817382814	-104.5909805297852	1489.373413085938	346.1541748046876	-145.7595825195313	1171.978515625	218.1784820556641	-178.8356170654297	1211.5859375	186.5186614990235	-252.7005157470704	1127.738525390625	206.7388305664063	-252.002426147461	1215.769165039063	52.55653762817384	-205.5616149902344	1217.989624023438	83.4396438598633	-155.41748046875	1169.236206054688	109.6377944946289	-127.3789672851563	1407.31982421875	1406.60791015625	-298.1089782714844	1329.73876953125	1181.573852539063	-279.5598449707032	1589.140258789063	1187.278198242188	-289.3558959960938	1523.69677734375	1328.324951171875	-293.2583007812501	1324.703125	1218.29296875	-381.0675048828126	1365.279907226563	1351.182006835938	-377.8238220214844	1407.298583984375	1357.6171875	-455.964324951172	1455.912353515625	1362.162109375	-478.5189208984376	1367.287841796875	1061.93505859375	-546.8696289062501	1357.406494140625	1043.435791015625	-453.8189086914064	1343.504760742188	1046.615478515625	-499.8380126953126	1407.464599609375	816.1543579101565	-546.4965820312501	1332.98486328125	831.7340087890627	-578.0466918945314	1394.757446289063	733.8789062500001	-572.3433837890626	1312.915893554688	778.104675292969	-597.2254638671876	1326.9755859375	1222.957763671875	-173.6475677490235	1366.199584960938	1356.10888671875	-202.0504760742188	1412.73876953125	1371.36865234375	-138.7055053710938	1464.709594726563	1376.359619140625	-124.0497665405274	1476.772583007813	1068.662353515625	-9.702515602111818	1455.052612304688	1038.006469726563	-89.76786041259767	1462.500610351563	1028.422973632813	-36.65761947631837	1668.396728515625	893.8502197265627	-24.70846176147462	1630.1572265625	877.8565063476565	28.24297142028809	1711.1337890625	829.4526977539065	-1.413508296012879	1621.708618164063	824.3378906250002	41.30953216552735	
